<?xml version="1.0" encoding="utf-8"?><svg width="52" height="22" viewBox="0 0 52 22" xmlns="http://www.w3.org/2000/svg" xmlns:xlink="http://www.w3.org/1999/xlink"><svg width="26" height="22" viewBox="0 0 26 22" fill="none" id="like" xmlns="http://www.w3.org/2000/svg"><path d="M18.177 1.934a5.589 5.589 0 00-3.343 1.082c-.95.688-1.583 1.564-1.956 2.202-.372-.638-1.005-1.514-1.955-2.202A5.589 5.589 0 007.58 1.934c-3.423 0-6.005 2.622-6.005 6.098 0 3.755 3.22 6.325 8.096 10.215.828.66 1.767 1.41 2.742 2.208a.734.734 0 00.465.163.734.734 0 00.465-.163 274.95 274.95 0 012.743-2.209c4.875-3.89 8.096-6.459 8.096-10.214 0-3.476-2.582-6.098-6.005-6.098z" fill="#fff"/><path fill-rule="evenodd" clip-rule="evenodd" d="M14.248 2.206A6.589 6.589 0 0118.177.934c3.99 0 7.005 3.084 7.005 7.098 0 2.207-.962 4.014-2.471 5.72-1.473 1.663-3.553 3.322-5.94 5.227l-.062.049c-.829.661-1.762 1.406-2.732 2.2-.313.257-.704.39-1.099.39s-.786-.133-1.099-.39c-.97-.794-1.903-1.539-2.731-2.2l-.061-.048c-2.388-1.905-4.469-3.565-5.94-5.228-1.51-1.706-2.472-3.513-2.472-5.72C.575 4.018 3.59.934 7.58.934c1.437 0 2.767.43 3.93 1.272a7.71 7.71 0 011.368 1.281 7.71 7.71 0 011.37-1.281zm-.754 2.108a7.881 7.881 0 00-.616.904 7.88 7.88 0 00-.616-.904 6.81 6.81 0 00-1.34-1.298A5.589 5.589 0 007.58 1.934c-3.423 0-6.005 2.622-6.005 6.098 0 3.755 3.22 6.325 8.096 10.215.829.66 1.767 1.41 2.742 2.208a.734.734 0 00.465.163.734.734 0 00.465-.163 274.95 274.95 0 012.743-2.209c4.875-3.89 8.096-6.459 8.096-10.214 0-3.476-2.582-6.098-6.005-6.098a5.589 5.589 0 00-3.343 1.082 6.81 6.81 0 00-1.34 1.298z" fill="#2D2D2D"/></svg><svg width="26" height="22" viewBox="0 0 26 22" fill="none" id="like-active" x="26" xmlns="http://www.w3.org/2000/svg"><path d="M18.177 1.934a5.589 5.589 0 00-3.343 1.082c-.95.688-1.583 1.564-1.956 2.202-.372-.638-1.005-1.514-1.955-2.202A5.589 5.589 0 007.58 1.934c-3.423 0-6.005 2.622-6.005 6.098 0 3.755 3.22 6.325 8.096 10.215.828.66 1.767 1.41 2.742 2.208a.734.734 0 00.465.163.734.734 0 00.465-.163 274.95 274.95 0 012.743-2.209c4.875-3.89 8.096-6.459 8.096-10.214 0-3.476-2.582-6.098-6.005-6.098z" fill="#D01345"/><path fill-rule="evenodd" clip-rule="evenodd" d="M14.248 2.206A6.589 6.589 0 0118.177.934c3.99 0 7.005 3.084 7.005 7.098 0 2.207-.962 4.014-2.471 5.72-1.473 1.663-3.553 3.322-5.94 5.227l-.062.049c-.829.661-1.762 1.406-2.732 2.2-.313.257-.704.39-1.099.39s-.786-.133-1.099-.39c-.97-.794-1.903-1.539-2.731-2.2l-.061-.048c-2.388-1.905-4.469-3.565-5.94-5.228-1.51-1.706-2.472-3.513-2.472-5.72C.575 4.018 3.59.934 7.58.934c1.437 0 2.767.43 3.93 1.272a7.71 7.71 0 011.368 1.281 7.71 7.71 0 011.37-1.281zm-.754 2.108a7.881 7.881 0 00-.616.904 7.88 7.88 0 00-.616-.904 6.81 6.81 0 00-1.34-1.298A5.589 5.589 0 007.58 1.934c-3.423 0-6.005 2.622-6.005 6.098 0 3.755 3.22 6.325 8.096 10.215.829.66 1.767 1.41 2.742 2.208a.734.734 0 00.465.163.734.734 0 00.465-.163 274.95 274.95 0 012.743-2.209c4.875-3.89 8.096-6.459 8.096-10.214 0-3.476-2.582-6.098-6.005-6.098a5.589 5.589 0 00-3.343 1.082 6.81 6.81 0 00-1.34 1.298z" fill="#fff"/></svg></svg>